<?xml version="1.0" standalone="no"?>
<!DOCTYPE svg PUBLIC "-//W3C//DTD SVG 20010904//EN"
 "http://www.w3.org/TR/2001/REC-SVG-20010904/DTD/svg10.dtd">
<svg version="1.0" xmlns="http://www.w3.org/2000/svg"
 width="906.000000pt" height="906.000000pt" viewBox="0 0 906.000000 906.000000"
 preserveAspectRatio="xMidYMid meet">
<metadata>
Created by potrace 1.11, written by Peter Selinger 2001-2013
</metadata>
<g transform="translate(0.000000,906.000000) scale(0.100000,-0.100000)"
fill="#000000" stroke="none">
<path d="M4490 8956 c-14 -7 -146 -84 -295 -171 -148 -86 -288 -167 -310 -180
-22 -12 -152 -88 -290 -167 -303 -176 -434 -251 -765 -442 -140 -81 -284 -165
-320 -186 -36 -21 -83 -49 -106 -62 -205 -116 -685 -394 -706 -409 -15 -10
-29 -19 -31 -19 -3 0 -56 -30 -118 -66 -108 -63 -199 -116 -604 -349 -93 -54
-182 -106 -197 -117 l-28 -19 0 -2259 0 -2258 113 -65 c61 -35 132 -75 157
-89 25 -14 196 -112 380 -218 184 -106 355 -204 380 -218 102 -57 185 -106
190 -111 3 -4 17 -12 32 -18 15 -7 323 -182 685 -389 720 -412 711 -407 766
-438 21 -11 46 -25 55 -31 33 -20 278 -160 313 -180 67 -37 344 -196 359 -206
8 -5 97 -56 198 -113 l182 -104 188 109 c103 60 194 112 202 116 8 4 53 29
100 56 47 27 103 59 125 71 22 13 243 139 490 281 248 142 470 269 494 283 25
14 151 86 280 160 130 74 254 145 276 157 22 13 127 73 234 134 122 70 200
109 211 106 12 -4 19 1 22 13 3 10 39 37 79 60 41 23 97 55 124 70 28 16 66
38 85 49 19 11 230 131 468 267 l432 248 0 2259 0 2258 -117 69 c-65 38 -152
89 -195 113 -42 24 -270 157 -507 294 -238 138 -451 261 -474 274 -23 13 -78
45 -122 71 -44 26 -100 58 -125 72 -25 14 -99 57 -165 95 -111 65 -542 314
-610 353 -16 10 -97 56 -178 104 -82 47 -167 97 -190 110 -23 13 -98 56 -167
96 -69 40 -134 78 -145 84 -19 11 -325 188 -355 206 -8 5 -71 42 -140 81 -69
39 -138 80 -155 90 -16 10 -37 22 -45 26 -8 4 -36 19 -61 35 -52 32 -64 33
-99 14z m3600 -2330 c0 -2 -7 -7 -16 -10 -8 -3 -12 -2 -9 4 6 10 25 14 25 6z"/>
</g>
</svg>
